<?xml version="1.0" encoding="utf-8"?>
<!-- Generator: Adobe Illustrator 19.0.0, SVG Export Plug-In . SVG Version: 6.00 Build 0)  -->
<svg version="1.1" id="Layer_1" xmlns="http://www.w3.org/2000/svg" xmlns:xlink="http://www.w3.org/1999/xlink" x="0px" y="0px"
	 viewBox="-561 334 100 100" style="enable-background:new -561 334 100 100;" xml:space="preserve">
<style type="text/css">
	.st0{fill:#f0f9e8;}
</style>
<path class="st0" d="M-466.1,405.2L-466.1,405.2l0.1-67V338l0,0l0,0h-0.1l-65.3,8.7l0,0v53c-2.6-0.8-5.5-1.2-8.5-0.9
	c-9.6,0.9-16.8,7.8-16,15.2c0.7,7.5,9.1,12.8,18.7,11.9c9.6-0.9,16.8-7.8,16-15.3c0-0.1,0-0.2-0.1-0.4h0.1v-46l45-6.6v36.8
	c-2.6-0.8-5.5-1.2-8.5-0.9c-9.6,0.9-16.8,7.8-16,15.3c0.7,7.5,9.1,12.8,18.7,11.9s16.8-7.8,16-15.3
	C-466.1,405.5-466.1,405.4-466.1,405.2z"/>
</svg>
